<svg id="Capa_1" enable-background="new 0 0 512 512" height="512" viewBox="0 0 512 512" width="512" xmlns="http://www.w3.org/2000/svg"><path d="m422.518 129.419c-4.234 0-7.665-3.432-7.665-7.665v-80.932c0-8.876-7.221-16.097-16.097-16.097h-40.882c-8.876 0-16.097 7.221-16.097 16.097v80.932c0 4.233-3.431 7.665-7.665 7.665s-7.665-3.432-7.665-7.665v-80.932c0-17.328 14.098-31.426 31.426-31.426h40.882c17.328 0 31.426 14.098 31.426 31.426v80.932c.002 4.233-3.43 7.665-7.663 7.665z" fill="#e9a52d"/><path d="m398.757 0h-40.883c-22.508 0-40.82 18.313-40.82 40.822v12.298c0 9.407 7.654 17.06 17.061 17.06s17.06-7.653 17.06-17.06v-12.298c0-3.695 3.005-6.702 6.7-6.702h40.883c3.696 0 6.702 3.006 6.702 6.702v12.298c0 9.407 7.653 17.06 17.06 17.06s17.061-7.653 17.061-17.06v-12.298c-.002-22.509-18.315-40.822-40.824-40.822z" fill="#7e8b96"/><path d="m440.419 511.242c-7.367 0-13.339-5.972-13.339-13.339v-21.411h26.677v21.411c.001 7.367-5.971 13.339-13.338 13.339z" fill="#7e8b96"/><path d="m316.212 511.242c-7.367 0-13.339-5.972-13.339-13.339v-21.411h26.677v21.411c.001 7.367-5.971 13.339-13.338 13.339z" fill="#7e8b96"/><path d="m475.403 121.754h-194.175c-13.73 0-24.86 11.13-24.86 24.86v305.018c0 13.73 11.13 24.86 24.86 24.86h194.175c13.73 0 24.86-11.13 24.86-24.86v-305.018c0-13.73-11.13-24.86-24.86-24.86z" fill="#80e29e"/><g fill="#6dc187"><path d="m475.403 121.754h-24.396c13.729 0 24.86 11.13 24.86 24.86v305.018c0 13.73-11.13 24.86-24.86 24.86h24.396c13.729 0 24.86-11.13 24.86-24.86v-305.018c0-13.73-11.13-24.86-24.86-24.86z"/><path d="m308.163 434.047c-4.234 0-7.665-3.432-7.665-7.665v-269.296c0-4.233 3.431-7.665 7.665-7.665s7.665 3.432 7.665 7.665v269.296c-.001 4.233-3.432 7.665-7.665 7.665z"/><path d="m354.931 434.047c-4.234 0-7.665-3.432-7.665-7.665v-269.296c0-4.233 3.431-7.665 7.665-7.665s7.665 3.432 7.665 7.665v269.296c0 4.233-3.431 7.665-7.665 7.665z"/><path d="m401.701 434.047c-4.234 0-7.665-3.432-7.665-7.665v-269.296c0-4.233 3.431-7.665 7.665-7.665s7.665 3.432 7.665 7.665v269.296c-.001 4.233-3.432 7.665-7.665 7.665z"/><path d="m448.469 434.047c-4.234 0-7.665-3.432-7.665-7.665v-269.296c0-4.233 3.431-7.665 7.665-7.665s7.665 3.432 7.665 7.665v269.296c0 4.233-3.431 7.665-7.665 7.665z"/></g><path d="m191.82 230.491c-4.234 0-7.665-3.432-7.665-7.665v-20.39c0-10.663-8.675-19.338-19.337-19.338-10.664 0-19.338 8.675-19.338 19.338v20.39c0 4.233-3.431 7.665-7.665 7.665s-7.665-3.432-7.665-7.665v-20.39c0-19.116 15.552-34.667 34.668-34.667 19.115 0 34.667 15.551 34.667 34.667v20.39c0 4.233-3.431 7.665-7.665 7.665z" fill="#a3847e"/><path d="m48.388 490.253v-245.68c0-12.011 9.737-21.747 21.747-21.747h189.366c12.011 0 21.747 9.737 21.747 21.747v245.679c0 12.011-9.737 21.747-21.747 21.747h-189.366c-12.011.001-21.747-9.736-21.747-21.746z" fill="#cba59d"/><path d="m259.501 222.826h-23.52c12.011 0 21.747 9.737 21.747 21.747v245.679c0 12.011-9.737 21.747-21.747 21.747h23.52c12.011 0 21.747-9.737 21.747-21.747v-245.679c.001-12.011-9.736-21.747-21.747-21.747z" fill="#a3847e"/><path d="m48.388 290.018v-45.445c0-12.011 9.737-21.747 21.747-21.747h189.366c12.011 0 21.747 9.737 21.747 21.747v45.445c0 12.011-9.737 21.747-21.747 21.747h-189.366c-12.011.001-21.747-9.736-21.747-21.747z" fill="#62a4fb"/><path d="m259.501 222.826h-23.52c12.011 0 21.747 9.737 21.747 21.747v45.445c0 12.011-9.737 21.747-21.747 21.747h23.52c12.011 0 21.747-9.737 21.747-21.747v-45.445c.001-12.011-9.736-21.747-21.747-21.747z" fill="#5392f9"/><path d="m90.48 402.061v56.165c0 6.005 4.868 10.874 10.874 10.874h126.928c6.005 0 10.874-4.868 10.874-10.874v-56.165c0-6.005-4.868-10.874-10.874-10.874h-126.928c-6.005 0-10.874 4.868-10.874 10.874z" fill="#f4e2c1"/><path d="m296.152 392.51h-14.903v88.259h14.903c12.011 0 21.747-9.737 21.747-21.747v-44.764c0-12.011-9.736-21.748-21.747-21.748z" fill="#62a4fb"/><path d="m48.388 392.51h-14.904c-12.011 0-21.747 9.737-21.747 21.747v44.764c0 12.011 9.737 21.747 21.747 21.747h14.903v-88.258z" fill="#62a4fb"/><path d="m215.127 222.826h26.243v112.397h-26.243z" fill="#e9a52d"/><path d="m88.267 222.826h26.243v112.397h-26.243z" fill="#e9a52d"/><path d="m247.702 356.339h-38.909c-3.669 0-6.643-2.974-6.643-6.643v-7.831c0-3.669 2.974-6.643 6.643-6.643h38.909c3.669 0 6.643 2.974 6.643 6.643v7.831c0 3.669-2.974 6.643-6.643 6.643z" fill="#f8e837"/><path d="m120.842 356.339h-38.908c-3.669 0-6.643-2.974-6.643-6.643v-7.831c0-3.669 2.974-6.643 6.643-6.643h38.909c3.669 0 6.643 2.974 6.643 6.643v7.831c-.001 3.669-2.975 6.643-6.644 6.643z" fill="#f8e837"/></svg>